<svg xmlns="http://www.w3.org/2000/svg" width="42" height="42" viewBox="-35.027000427246094 16.59000015258789 1100.0269775390625 1004.0379638671875" class="colorable-icon reset-top-left-margin" data-export-recolorable-svg="true" overflow="visible" xmlns:xlink="http://www.w3.org/1999/xlink" fill="rgb(0, 0, 0)" stroke="none" preserveAspectRatio="xMidYMid meet"><g fill="none" stroke="rgb(255, 255, 255)" stroke-width="45" stroke-linecap="round" stroke-linejoin="round"><path d="M 9.973,61.59 L 10.029,975.628" data-line="0" stroke-width="45.0" fill="none" stroke="rgb(255, 255, 255)"/><path d="M 10.029,975.628 L 1020.0,975.609" data-line="1" stroke-width="45.0" fill="none" stroke="rgb(255, 255, 255)"/><path d="M 844.256,189.586 L 974.972,161.777" data-line="4" stroke-width="45.0" fill="none" stroke="rgb(255, 255, 255)"/><path d="M 508.125,398.151 L 488.482,393.773" data-line="5" stroke-width="45.0" fill="none" stroke="rgb(255, 255, 255)"/><path d="M 508.125,398.151 L 513.045,400.227" data-line="6" stroke-width="45.0" fill="none" stroke="rgb(255, 255, 255)"/><path d="M 513.045,400.227 L 517.967,402.896" data-line="7" stroke-width="45.0" fill="none" stroke="rgb(255, 255, 255)"/><path d="M 517.967,402.896 L 639.204,504.954" data-line="8" stroke-width="45.0" fill="none" stroke="rgb(255, 255, 255)"/><path d="M 639.204,504.954 L 644.311,507.591" data-line="9" stroke-width="45.0" fill="none" stroke="rgb(255, 255, 255)"/><path d="M 644.311,507.591 L 649.279,509.414" data-line="10" stroke-width="45.0" fill="none" stroke="rgb(255, 255, 255)"/><path d="M 649.279,509.414 L 654.246,510.633" data-line="11" stroke-width="45.0" fill="none" stroke="rgb(255, 255, 255)"/><path d="M 654.246,510.633 L 659.123,511.25" data-line="12" stroke-width="45.0" fill="none" stroke="rgb(255, 255, 255)"/><path d="M 659.123,511.25 L 664.015,511.436" data-line="13" stroke-width="45.0" fill="none" stroke="rgb(255, 255, 255)"/><path d="M 664.015,511.436 L 668.955,511.186" data-line="14" stroke-width="45.0" fill="none" stroke="rgb(255, 255, 255)"/><path d="M 668.955,511.186 L 673.949,510.48" data-line="15" stroke-width="45.0" fill="none" stroke="rgb(255, 255, 255)"/><path d="M 673.949,510.48 L 679.023,509.235" data-line="16" stroke-width="45.0" fill="none" stroke="rgb(255, 255, 255)"/><path d="M 679.023,509.235 L 684.13,507.385" data-line="17" stroke-width="45.0" fill="none" stroke="rgb(255, 255, 255)"/><path d="M 684.13,507.385 L 689.24,504.872" data-line="18" stroke-width="45.0" fill="none" stroke="rgb(255, 255, 255)"/><path d="M 689.24,504.872 L 694.247,501.62" data-line="19" stroke-width="45.0" fill="none" stroke="rgb(255, 255, 255)"/><path d="M 694.247,501.62 L 699.021,497.734" data-line="20" stroke-width="45.0" fill="none" stroke="rgb(255, 255, 255)"/><path d="M 699.021,497.734 L 974.941,166.126" data-line="21" stroke-width="45.0" fill="none" stroke="rgb(255, 255, 255)"/><path d="M 128.842,788.151 L 454.669,407.268" data-line="22" stroke-width="45.0" fill="none" stroke="rgb(255, 255, 255)"/><path d="M 454.669,407.268 L 459.526,403.725" data-line="23" stroke-width="45.0" fill="none" stroke="rgb(255, 255, 255)"/><path d="M 459.526,403.725 L 464.412,400.882" data-line="24" stroke-width="45.0" fill="none" stroke="rgb(255, 255, 255)"/><path d="M 464.412,400.882 L 469.215,398.684" data-line="25" stroke-width="45.0" fill="none" stroke="rgb(255, 255, 255)"/><path d="M 469.215,398.684 L 488.482,393.773" data-line="26" stroke-width="45.0" fill="none" stroke="rgb(255, 255, 255)"/><path d="M 974.373,295.96 L 974.941,166.126" data-line="27" stroke-width="45.0" fill="none" stroke="rgb(255, 255, 255)"/></g></svg>