<svg xmlns="http://www.w3.org/2000/svg" width="65" height="65" viewBox="-26.628000259399414 -29.631999969482422 1077.2559814453125 1094.6320190429688" class="colorable-icon reset-top-left-margin" data-export-recolorable-svg="true" overflow="visible" xmlns:xlink="http://www.w3.org/1999/xlink" fill="rgb(0, 0, 0)" stroke="none" preserveAspectRatio="xMidYMid meet"><g fill="none" stroke="url(&quot;#theme-accent-gradient-linear&quot;) rgb(169, 91, 149)" stroke-width="45" stroke-linecap="round" stroke-linejoin="round"><path d="M 465.707,906.956 C 512.086,910.728 543.342,909.099 562.318,906.938 C 583.216,903.374 608.018,897.893 626.532,892.868 C 646.215,886.265 666.834,877.84 701.468,860.989 C 718.12,851.464 734.06,841.196 749.682,829.973 L 763.959,818.442" data-line="nan" stroke-width="45.0" fill="none" stroke="url(&quot;#theme-accent-gradient-linear&quot;) rgb(169, 91, 149)"/><path d="M 867.562,678.932 C 880.485,646.68 890.407,614.14 896.106,586.347 C 900.496,548.953 901.426,517.557 900.467,483.966 Q 896.584,452.769 891.384,427.908" data-line="nan" stroke-width="45.0" fill="none" stroke="url(&quot;#theme-accent-gradient-linear&quot;) rgb(169, 91, 149)"/><path d="M 719.63,188.446 C 685.111,169.113 652.055,154.42 615.31,142.187 C 577.544,134.454 554.574,131.644 533.855,130.078 C 497.622,130.428 452.106,133.991 408.926,142.101 C 392.266,146.816 373.397,153.351 337.371,168.836 C 321.837,176.786 303.178,187.649 288.607,196.781 C 274.968,206.506 247.706,229.154 223.75,253.204 Q 197.281,286.288 175.718,317.913" data-line="nan" stroke-width="45.0" fill="none" stroke="url(&quot;#theme-accent-gradient-linear&quot;) rgb(169, 91, 149)"/><path d="M 263.036,518.147 L 18.372,518.994" data-line="0.0" stroke-width="45.0" fill="none" stroke="url(&quot;#theme-accent-gradient-linear&quot;) rgb(169, 91, 149)"/><circle cx="510.94552190928914" cy="518.3674603724786" r="248.06370476448416" data-line="1.0" stroke-width="45.0" fill="none" stroke="url(&quot;#theme-accent-gradient-linear&quot;) rgb(169, 91, 149)"/><path d="M 512.094,767.244 L 512.086,910.728" data-line="2.0" stroke-width="45.0" fill="none" stroke="url(&quot;#theme-accent-gradient-linear&quot;) rgb(169, 91, 149)"/><path d="M 121.07522240692384,534.1372583593487 A 394.2872592447666,394.2872592447666 0 0,0 465.59113289148564,907.873788100511" data-line="3.0" stroke-width="45.0" fill="none" stroke="url(&quot;#theme-accent-gradient-linear&quot;) rgb(169, 91, 149)"/><path d="M 512.057,270.417 L 511.352,15.368" data-line="4.0" stroke-width="45.0" fill="none" stroke="url(&quot;#theme-accent-gradient-linear&quot;) rgb(169, 91, 149)"/><path d="M 512.415,1020.0 L 512.63,921.938" data-line="6.0" stroke-width="45.0" fill="none" stroke="url(&quot;#theme-accent-gradient-linear&quot;) rgb(169, 91, 149)"/><path d="M 512.63,921.938 L 518.672,911.667" data-line="7.0" stroke-width="45.0" fill="none" stroke="url(&quot;#theme-accent-gradient-linear&quot;) rgb(169, 91, 149)"/><path d="M 901.424,516.364 L 1005.628,518.655" data-line="8.0" stroke-width="45.0" fill="none" stroke="url(&quot;#theme-accent-gradient-linear&quot;) rgb(169, 91, 149)"/><circle cx="511.443708533665" cy="518.28383208033" r="105.06009350917718" data-line="13.0" stroke-width="45.0" fill="none" stroke="url(&quot;#theme-accent-gradient-linear&quot;) rgb(169, 91, 149)"/><path d="M 763.8526228680272,818.3170980386203 A 390.4480480710753,390.4480480710753 0 0,0 867.7609218626699,679.0199944759427" data-line="15.0" stroke-width="45.0" fill="none" stroke="url(&quot;#theme-accent-gradient-linear&quot;) rgb(169, 91, 149)"/><path d="M 891.3514321878965,427.91587539839594 A 394.1771769671212,394.1771769671212 0 0,0 719.8876409736869,188.04126090444015" data-line="17.0" stroke-width="45.0" fill="none" stroke="url(&quot;#theme-accent-gradient-linear&quot;) rgb(169, 91, 149)"/><path d="M 175.85947017480697,317.99737486626884 A 386.29711432536135,386.29711432536135 0 0,0 121.76369122534248,534.1055442602898" data-line="19.0" stroke-width="45.0" fill="none" stroke="url(&quot;#theme-accent-gradient-linear&quot;) rgb(169, 91, 149)"/></g></svg>