<svg xmlns="http://www.w3.org/2000/svg" width="65" height="65" viewBox="-40.758999824523926 24.80699920654297 1105.7213745117188 974.385986328125" class="colorable-icon reset-top-left-margin" data-export-recolorable-svg="true" overflow="visible" xmlns:xlink="http://www.w3.org/1999/xlink" fill="rgb(0, 0, 0)" stroke="none" preserveAspectRatio="xMidYMid meet"><g fill="none" stroke="url(&quot;#theme-accent-gradient-linear&quot;) rgb(169, 91, 149)" stroke-width="45" stroke-linecap="round" stroke-linejoin="round"><path d="M 1017.74,80.392 C 1004.756,75.381 998.706,74.111 993.305,74.591 C 981.108,79.008 937.201,99.802 749.622,198.353 C 715.983,212.523 700.681,217.56 678.904,223.333" data-line="nan" stroke-width="45.0" fill="none" stroke="url(&quot;#theme-accent-gradient-linear&quot;) rgb(169, 91, 149)"/><path d="M 1017.74,80.392 Q 1019.993,99.348 1019.962,171.239" data-line="nan" stroke-width="45.0" fill="none" stroke="url(&quot;#theme-accent-gradient-linear&quot;) rgb(169, 91, 149)"/><path d="M 1019.711,781.989 C 1017.902,791.986 1014.206,799.65 1009.095,805.268 C 1003.136,809.846 975.027,824.602 921.642,850.194" data-line="nan" stroke-width="45.0" fill="none" stroke="url(&quot;#theme-accent-gradient-linear&quot;) rgb(169, 91, 149)"/><path d="M 814.189,900.147 C 720.039,942.592 701.753,948.694 678.021,954.193" data-line="nan" stroke-width="45.0" fill="none" stroke="url(&quot;#theme-accent-gradient-linear&quot;) rgb(169, 91, 149)"/><path d="M 678.904,223.333 L 310.717,69.807" data-line="0.0" stroke-width="45.0" fill="none" stroke="url(&quot;#theme-accent-gradient-linear&quot;) rgb(169, 91, 149)"/><path d="M 678.904,223.333 L 678.021,954.193" data-line="1.0" stroke-width="45.0" fill="none" stroke="url(&quot;#theme-accent-gradient-linear&quot;) rgb(169, 91, 149)"/><path d="M 678.021,954.193 L 310.726,805.304" data-line="2.0" stroke-width="45.0" fill="none" stroke="url(&quot;#theme-accent-gradient-linear&quot;) rgb(169, 91, 149)"/><path d="M 310.752,802.387 L 310.717,69.807" data-line="3.0" stroke-width="45.0" fill="none" stroke="url(&quot;#theme-accent-gradient-linear&quot;) rgb(169, 91, 149)"/><path d="M 310.717,69.807 L 4.503,199.204" data-line="4.0" stroke-width="45.0" fill="none" stroke="url(&quot;#theme-accent-gradient-linear&quot;) rgb(169, 91, 149)"/><path d="M 307.454,803.922 L 4.241,942.482" data-line="5.0" stroke-width="45.0" fill="none" stroke="url(&quot;#theme-accent-gradient-linear&quot;) rgb(169, 91, 149)"/><path d="M 4.503,199.204 L 4.241,942.482" data-line="6.0" stroke-width="45.0" fill="none" stroke="url(&quot;#theme-accent-gradient-linear&quot;) rgb(169, 91, 149)"/><path d="M 1019.962,171.239 L 1019.711,781.989" data-line="9.0" stroke-width="45.0" fill="none" stroke="url(&quot;#theme-accent-gradient-linear&quot;) rgb(169, 91, 149)"/><path d="M 921.642,850.194 L 814.189,900.147" data-line="11.0" stroke-width="45.0" fill="none" stroke="url(&quot;#theme-accent-gradient-linear&quot;) rgb(169, 91, 149)"/></g></svg>