<svg xmlns="http://www.w3.org/2000/svg" width="65" height="65" viewBox="-16.237632751464844 -41 1056.6436157226562 1106.5313110351562" class="colorable-icon reset-top-left-margin" data-export-recolorable-svg="true" overflow="visible" xmlns:xlink="http://www.w3.org/1999/xlink" fill="rgb(0, 0, 0)" stroke="none" preserveAspectRatio="xMidYMid meet"><g fill="none" stroke="url(&quot;#theme-accent-gradient-linear&quot;) rgb(169, 91, 149)" stroke-width="45" stroke-linecap="round" stroke-linejoin="round"><path d="M 739.915,431.206 C 739.099,447.727 735.628,461.739 728.936,475.897 C 719.737,488.537 709.661,497.961 695.356,506.99 Q 681.826,512.058 664.674,514.79" data-line="nan" stroke-width="45.0" fill="none" stroke="url(&quot;#theme-accent-gradient-linear&quot;) rgb(169, 91, 149)"/><path d="M 580.787,515.047 C 560.004,517.905 539.387,524.975 523.083,534.195 C 506.921,547.501 495.008,561.743 489.778,570.164 C 484.919,580.078 479.171,598.307 477.674,607.474 C 476.981,618.912 479.03,639.673 481.993,651.099 C 485.094,659.418 489.057,667.919 496.235,679.591 C 507.819,693.498 524.157,707.311 540.789,716.877 C 559.193,723.657 570.91,726.114 580.182,726.908" data-line="nan" stroke-width="45.0" fill="none" stroke="url(&quot;#theme-accent-gradient-linear&quot;) rgb(169, 91, 149)"/><path d="M 761.664,727.244 C 783.066,729.717 803.59,735.722 821.951,744.88 C 829.499,749.925 838.775,757.6 852.732,772.964 C 859.011,782.23 863.972,791.407 867.94,800.972 C 871.396,812.493 873.67,824.65 874.459,833.876 C 874.458,843.276 873.262,854.824 868.504,873.448 C 864.305,883.489 859.561,892.28 847.245,909.552 C 831.945,924.61 823.119,931.33 813.352,937.417 C 804.074,942.052 792.155,946.552 773.273,950.244" data-line="nan" stroke-width="45.0" fill="none" stroke="url(&quot;#theme-accent-gradient-linear&quot;) rgb(169, 91, 149)"/><circle cx="144.20526845437982" cy="905.0884006884676" r="115.44289688905228" data-line="0.0" stroke-width="45.0" fill="none" stroke="url(&quot;#theme-accent-gradient-linear&quot;) rgb(169, 91, 149)"/><path d="M 995.406,154.138 L 739.834,27.927" data-line="2.0" stroke-width="45.0" fill="none" stroke="url(&quot;#theme-accent-gradient-linear&quot;) rgb(169, 91, 149)"/><path d="M 995.406,154.138 L 739.854,278.15" data-line="3.0" stroke-width="45.0" fill="none" stroke="url(&quot;#theme-accent-gradient-linear&quot;) rgb(169, 91, 149)"/><path d="M 739.841,50.657 L 739.915,431.206" data-line="4.0" stroke-width="45.0" fill="none" stroke="url(&quot;#theme-accent-gradient-linear&quot;) rgb(169, 91, 149)"/><path d="M 739.818,4.0 L 739.841,50.657" data-line="5.0" stroke-width="45.0" fill="none" stroke="url(&quot;#theme-accent-gradient-linear&quot;) rgb(169, 91, 149)"/><path d="M 687.24,950.46 L 335.147,950.639" data-line="7.0" stroke-width="45.0" fill="none" stroke="url(&quot;#theme-accent-gradient-linear&quot;) rgb(169, 91, 149)"/><path d="M 664.674,514.79 L 580.787,515.047" data-line="7.0" stroke-width="45.0" fill="none" stroke="url(&quot;#theme-accent-gradient-linear&quot;) rgb(169, 91, 149)"/><path d="M 580.182,726.908 L 761.664,727.244" data-line="9.0" stroke-width="45.0" fill="none" stroke="url(&quot;#theme-accent-gradient-linear&quot;) rgb(169, 91, 149)"/><path d="M 773.273,950.244 L 687.24,950.46" data-line="11.0" stroke-width="45.0" fill="none" stroke="url(&quot;#theme-accent-gradient-linear&quot;) rgb(169, 91, 149)"/></g></svg>