<svg xmlns="http://www.w3.org/2000/svg" width="42" height="42" viewBox="52.191001892089844 -40.63690137863159 919.6180419921875 1105.6369018554688" class="colorable-icon reset-top-left-margin" data-export-recolorable-svg="true" overflow="visible" xmlns:xlink="http://www.w3.org/1999/xlink" fill="rgb(0, 0, 0)" stroke="none" preserveAspectRatio="xMidYMid meet"><g fill="none" stroke="rgb(255, 255, 255)" stroke-width="45" stroke-linecap="round" stroke-linejoin="round"><path d="M 271.787,246.768 C 274.224,219.567 278.696,194.026 285.044,170.863 C 293.388,148.24 304.532,125.48 315.679,107.244 C 330.997,87.052 346.997,69.927 366.322,53.068 C 385.811,39.429 407.342,27.739 425.681,19.589 C 450.583,11.603 472.89,6.902 495.577,4.391 C 520.223,4.133 540.754,5.641 565.445,9.887 C 590.076,16.694 610.379,24.623 631.314,35.118 C 651.82,48.15 672.499,64.903 687.962,80.401 C 701.6,96.862 715.456,117.668 728.2,142.286 C 736.353,162.888 742.366,183.51 747.214,208.22 Q 749.742,232.995 750.867,261.859" data-line="nan" stroke-width="45.0" fill="none" stroke="rgb(255, 255, 255)"/><path d="M 750.867,261.859 L 270.824,262.501" data-line="1.0" stroke-width="45.0" fill="none" stroke="rgb(255, 255, 255)"/><path d="M 97.191,1020.0 L 271.787,246.768" data-line="3.0" stroke-width="45.0" fill="none" stroke="rgb(255, 255, 255)"/><path d="M 512.026,262.46 L 512.026,439.128" data-line="4.0" stroke-width="45.0" fill="none" stroke="rgb(255, 255, 255)"/><path d="M 512.0,737.103 L 512.046,562.766" data-line="7.0" stroke-width="45.0" fill="none" stroke="rgb(255, 255, 255)"/><path d="M 750.867,261.859 L 779.333,384.822" data-line="7.0" stroke-width="45.0" fill="none" stroke="rgb(255, 255, 255)"/><path d="M 512.033,862.114 L 512.033,1019.972" data-line="8.0" stroke-width="45.0" fill="none" stroke="rgb(255, 255, 255)"/><path d="M 779.333,384.822 L 926.809,1018.973" data-line="9.0" stroke-width="45.0" fill="none" stroke="rgb(255, 255, 255)"/></g></svg>